<svg width="48" height="48" viewBox="0 0 48 48" fill="none" xmlns="http://www.w3.org/2000/svg">
<circle cx="24" cy="24" r="22.75" fill="white" stroke="#D9D9D9" stroke-width="2.5"/>
<path d="M30.4571 23.2857C32.7293 23.2857 34.5713 20.9832 34.5713 18.1429C34.5713 15.3025 32.7293 13 30.4571 13C28.1848 13 26.3428 15.3025 26.3428 18.1429C26.3428 20.9832 28.1848 23.2857 30.4571 23.2857Z" stroke="black" stroke-width="2" stroke-linecap="round" stroke-linejoin="round"/>
<path d="M30.4571 23.2857V35.2857M18.2857 13V35.2857M22.5714 13V17.2857C22.5714 17.8485 22.4606 18.4058 22.2452 18.9258C22.0298 19.4458 21.7141 19.9182 21.3162 20.3162C20.9182 20.7141 20.4458 21.0298 19.9258 21.2452C19.4058 21.4606 18.8485 21.5714 18.2857 21.5714C17.1491 21.5714 16.059 21.1199 15.2553 20.3162C14.4515 19.5124 14 18.4224 14 17.2857V13" stroke="black" stroke-width="2" stroke-linecap="round" stroke-linejoin="round"/>
</svg>
