<svg width="48" height="48" viewBox="0 0 48 48" fill="none" xmlns="http://www.w3.org/2000/svg">
<circle cx="24" cy="24" r="22.75" fill="white" stroke="#D9D9D9" stroke-width="2.5"/>
<path d="M18.183 18.7347C17.1085 18.3053 16.6518 17.0547 17.2965 16.1453C18.5994 14.3263 20.7753 13 23.6497 13C26.8061 13 28.9686 14.3516 30.07 16.0442C31.0102 17.4968 31.5609 20.2126 30.1103 22.2337C28.4985 24.4695 26.9538 25.1516 26.1211 26.5916C25.9196 26.9326 25.7987 27.2105 25.7181 27.7789C25.5972 28.7011 24.7913 29.4211 23.7974 29.4211C22.6289 29.4211 21.6752 28.4737 21.8095 27.3747C21.8901 26.7305 22.0513 26.0611 22.4274 25.4295C23.4616 23.6737 25.4495 22.6379 26.6046 21.0842C27.8269 19.4547 27.1419 16.4105 23.6765 16.4105C22.105 16.4105 21.0842 17.1811 20.4529 18.1032C19.9828 18.8232 19.0023 19.0505 18.183 18.7347ZM26.3494 34.4737C26.3494 35.8632 25.1406 37 23.6631 37C22.1856 37 20.9768 35.8632 20.9768 34.4737C20.9768 33.0842 22.1856 31.9474 23.6631 31.9474C25.1406 31.9474 26.3494 33.0842 26.3494 34.4737Z" fill="black"/>
</svg>
