<svg width="40" height="40" viewBox="0 0 40 40" fill="none" xmlns="http://www.w3.org/2000/svg">
<path fill-rule="evenodd" clip-rule="evenodd" d="M8.556 2H2C0.894 2 0 2.896 0 4V12C0 12.608 0.278 13.184 0.75 13.562L10.608 21.446C12.412 23.718 15.02 25.316 18 25.82V28H14C12.894 28 12 28.896 12 30V36H11C10.4477 36 10 36.4476 10 37V39C10 39.5522 10.4477 40 11 40H29C29.5522 40 30 39.5522 30 39V37C30 36.4476 29.5522 36 29 36H28V30C28 28.896 27.106 28 26 28H22V25.82C24.98 25.316 27.588 23.718 29.392 21.446L39.25 13.562C39.722 13.184 40 12.608 40 12V4C40 2.896 39.106 2 38 2H31.444C30.75 0.809999 29.474 0 28 0H12C10.524 0 9.25 0.809999 8.556 2ZM36 5.99999V11.04L31.988 14.25C31.988 14.2067 31.991 14.165 31.994 14.1235C31.997 14.0825 32 14.0417 32 14V5.99999H36ZM8.012 14.252L4 11.04V5.99999H8V14C8 14.0415 8.00294 14.082 8.0059 14.123C8.00894 14.165 8.012 14.2075 8.012 14.252Z" fill="#FFE210"/>
</svg>