<svg width="24" height="24" viewBox="0 0 24 24" xmlns="http://www.w3.org/2000/svg">
<path d="M8.58368 4.08961C10.104 1.3632 10.8636 0 12 0C13.1364 0 13.896 1.3632 15.4163 4.08961L15.8099 4.79521C16.2419 5.57042 16.4579 5.95802 16.7939 6.21362C17.1299 6.46922 17.5499 6.56402 18.3899 6.75362L19.153 6.92642C22.105 7.59482 23.5797 7.92843 23.9313 9.05763C24.2817 10.1856 23.2761 11.3628 21.2638 13.716L20.743 14.3244C20.1718 14.9928 19.885 15.3276 19.7566 15.7404C19.6282 16.1544 19.6714 16.6009 19.7578 17.4925L19.837 18.3049C20.1406 21.4453 20.293 23.0149 19.3738 23.7121C18.4546 24.4105 17.0723 23.7733 14.3099 22.5013L13.5936 22.1725C12.8088 21.8101 12.4164 21.6301 12 21.6301C11.5836 21.6301 11.1912 21.8101 10.4052 22.1725L9.69125 22.5013C6.92772 23.7733 5.54535 24.4093 4.62737 23.7133C3.70699 23.0149 3.85939 21.4453 4.16298 18.3049L4.24218 17.4937C4.32858 16.6009 4.37178 16.1545 4.24218 15.7416C4.11499 15.3276 3.82819 14.9928 3.25701 14.3256L2.73622 13.716C0.723865 11.364 -0.281711 10.1868 0.0686804 9.05763C0.420272 7.92843 1.89624 7.59362 4.84817 6.92642L5.61135 6.75362C6.45013 6.56402 6.86892 6.46922 7.20611 6.21362C7.5421 5.95802 7.7581 5.57042 8.19009 4.79521L8.58368 4.08961Z"/>
</svg>
