<svg width="29" height="26" viewBox="0 0 29 26" fill="none" xmlns="http://www.w3.org/2000/svg">
<path d="M6.34375 5.6875L7.47656 21.9375C7.53037 22.8764 8.29219 23.5625 9.28906 23.5625H19.7109C20.7118 23.5625 21.4594 22.8764 21.5234 21.9375L22.6562 5.6875" stroke="black" stroke-width="0.5" stroke-linecap="round" stroke-linejoin="round"/>
<path d="M4.53125 5.6875H24.4688H4.53125Z" fill="black"/>
<path d="M4.53125 5.6875H24.4688" stroke="black" stroke-width="0.5" stroke-miterlimit="10" stroke-linecap="round"/>
<path d="M10.875 5.68751V3.65626C10.8745 3.49608 10.9093 3.33738 10.9774 3.18931C11.0455 3.04123 11.1457 2.90669 11.272 2.79342C11.3983 2.68016 11.5484 2.5904 11.7135 2.52932C11.8787 2.46824 12.0557 2.43704 12.2344 2.43751H16.7656C16.9443 2.43704 17.1213 2.46824 17.2865 2.52932C17.4516 2.5904 17.6017 2.68016 17.728 2.79342C17.8544 2.90669 17.9545 3.04123 18.0226 3.18931C18.0907 3.33738 18.1255 3.49608 18.125 3.65626V5.68751M14.5 8.93751V20.3125M10.4219 8.93751L10.875 20.3125M18.5781 8.93751L18.125 20.3125" stroke="black" stroke-width="0.5" stroke-linecap="round" stroke-linejoin="round"/>
</svg>
