<svg width="48" height="48" viewBox="0 0 48 48" fill="none" xmlns="http://www.w3.org/2000/svg">
<circle cx="24" cy="24" r="22.75" fill="white" stroke="#D9D9D9" stroke-width="2.5"/>
<path d="M28.8459 15.9369L28.8468 15.938C31.9185 19.5412 33.5 23.2933 33.5 26.7856C33.5 29.3654 32.4966 31.8375 30.7138 33.6585C28.9313 35.4792 26.5161 36.5 24 36.5C21.4839 36.5 19.0687 35.4792 17.2862 33.6585C15.5034 31.8375 14.5 29.3654 14.5 26.7856C14.5 23.2933 16.0815 19.5412 19.1532 15.938L19.1544 15.9366C20.5297 14.3114 22.0774 12.8475 23.7689 11.5718C23.8367 11.5246 23.9156 11.5 23.9955 11.5C24.0754 11.5 24.1544 11.5246 24.2222 11.5719C25.9169 12.8471 27.4677 14.3111 28.8459 15.9369ZM23.9994 35.6428L24.0006 35.6428C26.3057 35.6402 28.5134 34.7037 30.14 33.0421C31.7663 31.381 32.6793 29.1309 32.6818 26.7862V26.7856C32.6818 23.3079 31.0356 20.1554 29.1948 17.7105C27.3493 15.2595 25.2689 13.467 24.3131 12.6992L24 12.4477L23.6869 12.6992C22.7311 13.4671 20.6506 15.2601 18.8052 17.7114C16.9645 20.1566 15.3182 23.309 15.3182 26.7856L15.3182 26.7862C15.3207 29.1309 16.2337 31.381 17.86 33.0421C19.4866 34.7037 21.6943 35.6402 23.9994 35.6428ZM29.7867 27.4619C29.8462 27.5475 29.8736 27.6536 29.8628 27.7597L29.8586 27.7834C29.6402 29.0299 29.0533 30.1766 28.1787 31.0698C27.3055 31.9615 26.1876 32.5576 24.9756 32.7801C24.9531 32.7836 24.9304 32.7854 24.9076 32.7857C24.8088 32.7852 24.7118 32.7472 24.6361 32.676C24.5597 32.6042 24.5107 32.5036 24.5017 32.3934C24.4927 32.2832 24.5249 32.1748 24.5895 32.0899C24.6539 32.0054 24.7451 31.951 24.8434 31.9341L24.8438 31.934C26.9426 31.5731 28.6991 29.7711 29.0523 27.6407C29.0715 27.5255 29.1342 27.4257 29.2228 27.3615C29.3111 27.2975 29.4187 27.273 29.5225 27.291C29.6265 27.3091 29.7222 27.3691 29.7867 27.4619Z" fill="black" stroke="black"/>
</svg>
