<svg width="29" height="27" viewBox="0 0 29 27" fill="none" xmlns="http://www.w3.org/2000/svg">
    <path d="M24.8496 25.376V25.75H4.15039V25.376H24.8496ZM14.6318 5.37402C14.6752 5.41513 14.7193 5.45106 14.7568 5.48047L19.7021 12.8301L20.3623 13.8115L21.3779 13.207L27.4434 9.60059C27.5131 9.55904 27.605 9.56269 27.6709 9.60938C27.7369 9.6587 27.7603 9.7344 27.7451 9.80078L24.8457 21.2939C24.8255 21.3736 24.7494 21.4395 24.6494 21.4395H4.35059C4.25205 21.4395 4.17372 21.3733 4.15332 21.293L1.25488 9.80078C1.23998 9.73603 1.26195 9.66186 1.3252 9.6123C1.37677 9.57568 1.44245 9.56439 1.50293 9.5791L1.56152 9.60254L7.62305 13.207L8.63965 13.8115L9.2998 12.8301L14.2422 5.48145C14.2775 5.45392 14.3194 5.42083 14.3604 5.38281L14.502 5.25098L14.6318 5.37402ZM15.624 2.57422L14.6113 3.58008L14.5 3.68945L14.3896 3.58008L13.376 2.57422L14.5 1.45996L15.624 2.57422Z" stroke="#ADADAD" stroke-width="2.5"/>
</svg>