<svg id="svg" version="1.1" xmlns="http://www.w3.org/2000/svg" xmlns:xlink="http://www.w3.org/1999/xlink" width="45" height="45" viewBox="0, 0, 400,400"><g id="svgg"><path id="path0" d="M63.801 265.993 C 44.441 285.357,28.376 301.200,28.101 301.200 C 27.350 301.200,27.497 302.139,28.400 303.108 C 28.840 303.580,29.200 304.077,29.200 304.211 C 29.200 304.346,29.740 305.241,30.400 306.200 C 31.060 307.159,31.600 308.097,31.600 308.284 C 31.600 308.471,31.960 308.883,32.400 309.200 C 32.840 309.517,33.200 310.057,33.200 310.400 C 33.200 310.743,33.560 311.283,34.000 311.600 C 34.440 311.917,34.800 312.457,34.800 312.800 C 34.800 313.143,35.160 313.683,35.600 314.000 C 36.040 314.317,36.400 314.857,36.400 315.200 C 36.400 315.543,36.760 316.083,37.200 316.400 C 37.640 316.717,38.000 317.207,38.000 317.488 C 38.000 317.770,38.180 318.000,38.400 318.000 C 38.620 318.000,38.800 318.177,38.800 318.393 C 38.800 318.609,39.242 319.284,39.782 319.893 C 40.322 320.502,41.705 322.260,42.856 323.800 C 44.007 325.340,45.238 326.870,45.593 327.200 C 45.948 327.530,46.673 328.421,47.204 329.181 C 48.310 330.762,50.564 333.205,57.529 340.374 C 60.240 343.163,62.580 345.618,62.729 345.829 C 62.878 346.039,63.983 347.019,65.185 348.005 C 66.387 348.992,68.350 350.745,69.547 351.900 C 70.745 353.055,71.868 354.000,72.044 354.000 C 72.220 354.000,72.777 354.409,73.282 354.910 C 73.787 355.410,74.920 356.353,75.800 357.005 C 76.680 357.658,77.691 358.508,78.047 358.896 C 78.403 359.283,78.898 359.600,79.147 359.600 C 79.396 359.600,79.600 359.780,79.600 360.000 C 79.600 360.220,79.830 360.400,80.112 360.400 C 80.393 360.400,80.883 360.760,81.200 361.200 C 81.517 361.640,82.107 362.000,82.512 362.000 C 82.916 362.000,83.136 362.180,83.000 362.400 C 82.864 362.620,82.994 362.800,83.288 362.800 C 83.583 362.800,84.083 363.160,84.400 363.600 C 84.717 364.040,85.231 364.400,85.541 364.400 C 85.852 364.400,86.397 364.716,86.753 365.103 C 87.109 365.489,87.895 366.060,88.500 366.370 C 89.105 366.681,89.600 367.085,89.600 367.268 C 89.600 367.450,89.920 367.600,90.312 367.600 C 90.703 367.600,91.283 367.960,91.600 368.400 C 91.917 368.840,92.311 369.200,92.476 369.200 C 92.641 369.200,94.141 370.091,95.809 371.181 C 97.478 372.270,99.553 373.475,100.422 373.858 C 101.290 374.241,102.000 374.699,102.000 374.877 C 102.000 375.055,102.360 375.200,102.800 375.200 C 103.240 375.200,103.600 375.380,103.600 375.600 C 103.600 375.820,103.960 376.000,104.400 376.000 C 104.840 376.000,105.200 376.180,105.200 376.400 C 105.200 376.620,105.560 376.800,106.000 376.800 C 106.440 376.800,106.800 376.980,106.800 377.200 C 106.800 377.420,107.160 377.600,107.600 377.600 C 108.040 377.600,108.400 377.750,108.400 377.933 C 108.400 378.336,113.089 380.800,113.856 380.800 C 114.155 380.800,114.400 380.980,114.400 381.200 C 114.400 381.420,114.760 381.600,115.200 381.600 C 115.640 381.600,116.000 381.780,116.000 382.000 C 116.000 382.220,116.360 382.400,116.800 382.400 C 117.240 382.400,117.600 382.580,117.600 382.800 C 117.600 383.020,117.960 383.200,118.400 383.200 C 118.840 383.200,119.200 383.380,119.200 383.600 C 119.200 383.820,119.549 384.000,119.976 384.000 C 120.403 384.000,120.864 384.180,121.000 384.400 C 121.136 384.620,121.687 384.800,122.224 384.800 C 122.761 384.800,123.200 384.980,123.200 385.200 C 123.200 385.420,123.560 385.600,124.000 385.600 C 124.440 385.600,124.800 385.780,124.800 386.000 C 124.800 386.220,125.079 386.400,125.419 386.400 C 125.760 386.400,126.784 386.760,127.694 387.200 C 128.605 387.640,129.589 388.000,129.881 388.000 C 130.172 388.000,130.723 388.159,131.105 388.353 C 133.497 389.570,139.739 391.600,141.089 391.600 C 141.590 391.600,142.000 391.780,142.000 392.000 C 142.000 392.220,142.630 392.400,143.400 392.400 C 144.170 392.400,144.800 392.580,144.800 392.800 C 144.800 393.020,145.329 393.200,145.976 393.200 C 146.623 393.200,147.264 393.380,147.400 393.600 C 147.536 393.820,148.267 394.000,149.024 394.000 C 149.781 394.000,150.400 394.180,150.400 394.400 C 150.400 394.620,151.120 394.800,152.000 394.800 C 152.880 394.800,153.600 394.980,153.600 395.200 C 153.600 395.420,154.309 395.600,155.176 395.600 C 156.043 395.600,156.864 395.780,157.000 396.000 C 157.136 396.220,158.047 396.400,159.024 396.400 C 160.001 396.400,160.800 396.580,160.800 396.800 C 160.800 397.020,161.689 397.200,162.776 397.200 C 163.863 397.200,164.864 397.380,165.000 397.600 C 165.136 397.820,166.216 398.000,167.400 398.000 C 168.584 398.000,169.664 398.180,169.800 398.400 C 169.936 398.620,171.171 398.800,172.544 398.800 C 173.917 398.800,175.233 398.993,175.469 399.229 C 175.744 399.504,180.216 399.741,187.949 399.891 L 200.000 400.125 200.000 352.742 C 200.000 316.423,199.888 305.248,199.520 304.880 C 199.192 304.552,197.241 304.400,193.344 304.400 C 189.977 304.400,187.546 304.236,187.400 304.000 C 187.264 303.780,186.083 303.600,184.776 303.600 C 183.459 303.600,182.400 303.422,182.400 303.200 C 182.400 302.980,181.500 302.800,180.400 302.800 C 179.300 302.800,178.400 302.620,178.400 302.400 C 178.400 302.180,177.691 302.000,176.824 302.000 C 175.957 302.000,175.136 301.820,175.000 301.600 C 174.864 301.380,174.133 301.200,173.376 301.200 C 172.619 301.200,172.000 301.020,172.000 300.800 C 172.000 300.580,171.471 300.400,170.824 300.400 C 170.177 300.400,169.536 300.220,169.400 300.000 C 169.264 299.780,168.623 299.600,167.976 299.600 C 167.329 299.600,166.800 299.453,166.800 299.272 C 166.800 299.092,165.900 298.700,164.800 298.400 C 163.700 298.100,162.800 297.708,162.800 297.528 C 162.800 297.347,162.361 297.200,161.824 297.200 C 161.287 297.200,160.736 297.020,160.600 296.800 C 160.464 296.580,160.003 296.400,159.576 296.400 C 159.149 296.400,158.800 296.220,158.800 296.000 C 158.800 295.780,158.542 295.600,158.227 295.600 C 157.912 295.600,156.048 294.790,154.085 293.800 C 152.122 292.810,150.310 292.000,150.058 292.000 C 149.806 292.000,149.600 291.820,149.600 291.600 C 149.600 291.380,149.240 291.200,148.800 291.200 C 148.360 291.200,148.000 291.020,148.000 290.800 C 148.000 290.580,147.764 290.400,147.475 290.400 C 147.187 290.400,146.564 290.040,146.092 289.600 C 145.620 289.160,144.996 288.800,144.705 288.800 C 144.414 288.800,143.917 288.440,143.600 288.000 C 143.283 287.560,142.743 287.200,142.400 287.200 C 142.057 287.200,141.517 286.840,141.200 286.400 C 140.883 285.960,140.393 285.600,140.112 285.600 C 139.830 285.600,139.600 285.459,139.600 285.286 C 139.600 285.114,139.055 284.651,138.389 284.257 C 137.723 283.864,136.778 283.146,136.289 282.662 C 135.800 282.178,134.790 281.352,134.045 280.825 C 130.843 278.562,119.200 266.958,119.200 266.030 C 119.200 265.846,118.525 264.995,117.700 264.138 C 116.875 263.280,115.945 262.089,115.632 261.489 C 115.320 260.890,114.915 260.400,114.732 260.400 C 114.550 260.400,114.400 260.196,114.400 259.947 C 114.400 259.698,114.084 259.203,113.697 258.847 C 113.311 258.491,112.740 257.705,112.430 257.100 C 112.119 256.495,111.715 256.000,111.532 256.000 C 111.350 256.000,111.200 255.680,111.200 255.288 C 111.200 254.897,110.840 254.317,110.400 254.000 C 109.960 253.683,109.600 253.103,109.600 252.712 C 109.600 252.320,109.420 252.000,109.200 252.000 C 108.980 252.000,108.800 251.655,108.800 251.233 C 108.800 250.812,108.663 250.407,108.496 250.333 C 108.329 250.260,107.328 248.400,106.271 246.200 C 105.215 244.000,104.182 241.887,103.975 241.505 C 103.769 241.123,103.600 240.538,103.600 240.205 C 103.600 239.872,103.420 239.600,103.200 239.600 C 102.980 239.600,102.800 239.251,102.800 238.824 C 102.800 238.397,102.620 237.936,102.400 237.800 C 102.180 237.664,102.000 237.113,102.000 236.576 C 102.000 236.039,101.820 235.600,101.600 235.600 C 101.380 235.600,101.200 235.186,101.200 234.680 C 101.200 234.174,101.035 233.589,100.834 233.380 C 100.632 233.171,100.407 232.552,100.334 232.004 C 100.260 231.456,99.930 230.958,99.600 230.897 C 99.253 230.833,84.149 245.641,63.801 265.993 " stroke="none" fill="#5cc46c" fill-rule="evenodd"></path><path id="path1" d="M179.100 0.274 C 176.718 0.381,175.598 0.586,175.594 0.916 C 175.590 1.218,175.442 1.174,175.200 0.800 C 174.942 0.400,174.810 0.367,174.806 0.700 C 174.802 1.052,173.970 1.200,172.000 1.200 C 170.400 1.200,169.200 1.371,169.200 1.600 C 169.200 1.822,168.133 2.000,166.800 2.000 C 165.467 2.000,164.400 2.178,164.400 2.400 C 164.400 2.620,163.601 2.800,162.624 2.800 C 161.647 2.800,160.736 2.980,160.600 3.200 C 160.464 3.420,159.654 3.600,158.800 3.600 C 157.946 3.600,157.136 3.780,157.000 4.000 C 156.864 4.220,156.043 4.400,155.176 4.400 C 154.309 4.400,153.600 4.580,153.600 4.800 C 153.600 5.020,152.880 5.200,152.000 5.200 C 151.120 5.200,150.400 5.380,150.400 5.600 C 150.400 5.820,149.680 6.000,148.800 6.000 C 147.920 6.000,147.200 6.180,147.200 6.400 C 147.200 6.620,146.671 6.800,146.024 6.800 C 145.377 6.800,144.736 6.980,144.600 7.200 C 144.464 7.420,143.823 7.600,143.176 7.600 C 142.529 7.600,142.000 7.780,142.000 8.000 C 142.000 8.220,141.571 8.400,141.046 8.400 C 140.022 8.400,136.247 9.440,135.105 10.037 C 134.723 10.237,134.172 10.400,133.881 10.400 C 133.589 10.400,132.605 10.760,131.694 11.200 C 130.784 11.640,129.771 12.000,129.443 12.000 C 129.115 12.000,128.736 12.180,128.600 12.400 C 128.464 12.620,127.913 12.800,127.376 12.800 C 126.839 12.800,126.400 12.980,126.400 13.200 C 126.400 13.420,126.040 13.600,125.600 13.600 C 125.160 13.600,124.800 13.780,124.800 14.000 C 124.800 14.220,124.350 14.400,123.800 14.400 C 123.250 14.400,122.800 14.580,122.800 14.800 C 122.800 15.020,122.451 15.200,122.024 15.200 C 121.597 15.200,121.136 15.380,121.000 15.600 C 120.864 15.820,120.403 16.000,119.976 16.000 C 119.549 16.000,119.200 16.180,119.200 16.400 C 119.200 16.620,118.840 16.800,118.400 16.800 C 117.960 16.800,117.600 16.980,117.600 17.200 C 117.600 17.420,117.240 17.600,116.800 17.600 C 116.360 17.600,116.000 17.780,116.000 18.000 C 116.000 18.220,115.676 18.400,115.280 18.400 C 114.386 18.400,112.407 19.294,112.403 19.700 C 112.401 19.865,112.040 20.000,111.600 20.000 C 111.160 20.000,110.800 20.180,110.800 20.400 C 110.800 20.620,110.455 20.800,110.033 20.800 C 109.612 20.800,109.207 20.935,109.133 21.100 C 108.966 21.476,106.836 22.775,105.900 23.071 C 105.515 23.193,105.200 23.452,105.200 23.647 C 105.200 23.841,104.840 24.000,104.400 24.000 C 103.960 24.000,103.600 24.180,103.600 24.400 C 103.600 24.620,103.358 24.800,103.061 24.800 C 102.473 24.800,99.922 25.978,99.600 26.398 C 99.490 26.542,98.590 27.096,97.600 27.630 C 96.610 28.163,95.710 28.690,95.600 28.801 C 95.490 28.911,94.905 29.256,94.300 29.568 C 93.695 29.880,93.200 30.285,93.200 30.468 C 93.200 30.650,92.996 30.800,92.747 30.800 C 92.498 30.800,92.003 31.115,91.647 31.500 C 91.291 31.885,90.730 32.259,90.400 32.330 C 90.070 32.402,89.740 32.627,89.667 32.830 C 89.593 33.034,89.278 33.200,88.967 33.200 C 88.655 33.200,88.400 33.380,88.400 33.600 C 88.400 33.820,88.170 34.000,87.888 34.000 C 87.607 34.000,87.117 34.360,86.800 34.800 C 86.483 35.240,85.943 35.600,85.600 35.600 C 85.257 35.600,84.717 35.960,84.400 36.400 C 84.083 36.840,83.575 37.200,83.272 37.200 C 82.969 37.200,82.217 37.740,81.600 38.400 C 80.983 39.060,80.308 39.600,80.099 39.600 C 79.890 39.600,79.154 40.140,78.463 40.800 C 77.772 41.460,77.058 42.000,76.875 42.000 C 76.693 42.000,75.745 42.765,74.769 43.700 C 73.793 44.635,72.816 45.448,72.597 45.506 C 72.379 45.564,71.274 46.483,70.142 47.548 C 69.011 48.614,67.503 49.899,66.792 50.406 C 65.121 51.595,51.200 65.590,51.200 66.079 C 51.200 66.284,50.340 67.295,49.289 68.326 C 48.238 69.357,46.939 70.830,46.402 71.600 C 45.865 72.370,44.925 73.540,44.314 74.200 C 43.702 74.860,42.530 76.390,41.708 77.600 C 40.886 78.810,39.896 80.091,39.507 80.447 C 39.118 80.803,38.800 81.308,38.800 81.571 C 38.800 81.833,38.620 81.936,38.400 81.800 C 38.180 81.664,38.000 81.884,38.000 82.288 C 38.000 82.693,37.640 83.283,37.200 83.600 C 36.760 83.917,36.400 84.431,36.400 84.741 C 36.400 85.052,36.051 85.609,35.625 85.978 C 35.199 86.348,34.794 86.909,34.725 87.225 C 34.656 87.541,34.329 88.070,33.997 88.400 C 33.666 88.730,33.140 89.495,32.830 90.100 C 32.519 90.705,32.115 91.200,31.932 91.200 C 31.750 91.200,31.600 91.442,31.600 91.738 C 31.600 92.034,31.240 92.602,30.800 93.000 C 30.360 93.398,30.000 93.966,30.000 94.262 C 30.000 94.558,29.820 94.800,29.600 94.800 C 29.380 94.800,29.196 95.025,29.191 95.300 C 29.186 95.575,28.830 96.250,28.400 96.800 C 27.502 97.949,27.374 98.800,28.101 98.800 C 28.376 98.800,44.441 114.640,63.800 134.000 C 83.680 153.881,99.303 169.200,99.699 169.200 C 100.208 169.200,100.400 168.878,100.400 168.024 C 100.400 167.377,100.580 166.736,100.800 166.600 C 101.020 166.464,101.200 165.913,101.200 165.376 C 101.200 164.839,101.380 164.400,101.600 164.400 C 101.820 164.400,102.000 163.950,102.000 163.400 C 102.000 162.850,102.180 162.400,102.400 162.400 C 102.620 162.400,102.800 161.950,102.800 161.400 C 102.800 160.850,102.980 160.400,103.200 160.400 C 103.420 160.400,103.600 160.040,103.600 159.600 C 103.600 159.160,103.780 158.800,104.000 158.800 C 104.220 158.800,104.400 158.535,104.400 158.212 C 104.400 157.889,104.760 156.983,105.200 156.200 C 105.640 155.417,106.000 154.511,106.000 154.188 C 106.000 153.865,106.138 153.600,106.306 153.600 C 106.627 153.600,108.000 150.680,108.000 149.997 C 108.000 149.779,108.180 149.600,108.400 149.600 C 108.620 149.600,108.800 149.240,108.800 148.800 C 108.800 148.360,108.980 148.000,109.200 148.000 C 109.420 148.000,109.600 147.680,109.600 147.288 C 109.600 146.897,109.960 146.317,110.400 146.000 C 110.840 145.683,111.200 145.143,111.200 144.800 C 111.200 144.457,111.560 143.917,112.000 143.600 C 112.440 143.283,112.800 142.743,112.800 142.400 C 112.800 142.057,113.160 141.517,113.600 141.200 C 114.040 140.883,114.400 140.433,114.400 140.200 C 114.400 139.967,114.760 139.517,115.200 139.200 C 115.640 138.883,116.000 138.415,116.000 138.161 C 116.000 137.907,116.720 136.934,117.600 136.000 C 118.480 135.066,119.200 134.147,119.200 133.958 C 119.200 133.067,131.730 120.599,133.664 119.567 C 134.179 119.292,135.077 118.557,135.660 117.933 C 136.244 117.310,136.919 116.800,137.160 116.800 C 137.402 116.800,137.600 116.620,137.600 116.400 C 137.600 116.180,137.830 116.000,138.112 116.000 C 138.393 116.000,138.883 115.640,139.200 115.200 C 139.517 114.760,139.967 114.400,140.200 114.400 C 140.433 114.400,140.883 114.040,141.200 113.600 C 141.517 113.160,142.057 112.800,142.400 112.800 C 142.743 112.800,143.283 112.440,143.600 112.000 C 143.917 111.560,144.497 111.200,144.888 111.200 C 145.280 111.200,145.600 111.020,145.600 110.800 C 145.600 110.580,145.836 110.400,146.125 110.400 C 146.413 110.400,147.036 110.040,147.508 109.600 C 147.980 109.160,148.644 108.800,148.983 108.800 C 149.322 108.800,149.600 108.620,149.600 108.400 C 149.600 108.180,149.888 108.000,150.240 108.000 C 150.591 108.000,152.026 107.370,153.427 106.600 C 154.828 105.830,156.250 105.200,156.587 105.200 C 156.924 105.200,157.200 105.020,157.200 104.800 C 157.200 104.580,157.560 104.400,158.000 104.400 C 158.440 104.400,158.800 104.220,158.800 104.000 C 158.800 103.780,159.160 103.600,159.600 103.600 C 160.040 103.600,160.400 103.409,160.400 103.176 C 160.400 102.943,160.548 102.844,160.729 102.956 C 160.909 103.068,161.560 102.898,162.174 102.580 C 162.789 102.261,163.631 102.000,164.046 102.000 C 164.461 102.000,164.800 101.820,164.800 101.600 C 164.800 101.380,165.250 101.200,165.800 101.200 C 166.350 101.200,166.800 101.020,166.800 100.800 C 166.800 100.580,167.430 100.400,168.200 100.400 C 168.970 100.400,169.600 100.220,169.600 100.000 C 169.600 99.780,170.129 99.600,170.776 99.600 C 171.423 99.600,172.064 99.420,172.200 99.200 C 172.336 98.980,173.067 98.800,173.824 98.800 C 174.581 98.800,175.200 98.620,175.200 98.400 C 175.200 98.180,175.920 98.000,176.800 98.000 C 177.680 98.000,178.400 97.820,178.400 97.600 C 178.400 97.380,179.300 97.200,180.400 97.200 C 181.500 97.200,182.400 97.020,182.400 96.800 C 182.400 96.575,183.525 96.400,184.976 96.400 C 186.393 96.400,187.664 96.220,187.800 96.000 C 187.946 95.763,190.393 95.600,193.790 95.600 C 197.994 95.600,199.596 95.466,199.767 95.100 C 199.953 94.700,200.047 94.700,200.233 95.100 C 200.404 95.466,202.006 95.600,206.210 95.600 C 209.607 95.600,212.054 95.763,212.200 96.000 C 212.336 96.220,213.607 96.400,215.024 96.400 C 216.475 96.400,217.600 96.575,217.600 96.800 C 217.600 97.020,218.500 97.200,219.600 97.200 C 220.700 97.200,221.600 97.380,221.600 97.600 C 221.600 97.820,222.309 98.000,223.176 98.000 C 224.043 98.000,224.864 98.180,225.000 98.400 C 225.136 98.620,225.766 98.800,226.400 98.800 C 227.034 98.800,227.664 98.980,227.800 99.200 C 227.936 99.420,228.667 99.600,229.424 99.600 C 230.181 99.600,230.800 99.780,230.800 100.000 C 230.800 100.220,231.340 100.400,232.000 100.400 C 232.660 100.400,233.200 100.580,233.200 100.800 C 233.200 101.020,233.639 101.200,234.176 101.200 C 234.713 101.200,235.264 101.380,235.400 101.600 C 235.536 101.820,235.997 102.000,236.424 102.000 C 236.851 102.000,237.200 102.180,237.200 102.400 C 237.200 102.620,237.740 102.800,238.400 102.800 C 239.060 102.800,239.600 102.980,239.600 103.200 C 239.600 103.420,239.960 103.600,240.400 103.600 C 240.840 103.600,241.200 103.780,241.200 104.000 C 241.200 104.220,241.560 104.400,242.000 104.400 C 242.440 104.400,242.800 104.580,242.800 104.800 C 242.800 105.020,243.055 105.200,243.367 105.200 C 243.679 105.200,245.121 105.830,246.573 106.600 C 248.024 107.370,249.479 108.000,249.806 108.000 C 250.133 108.000,250.400 108.180,250.400 108.400 C 250.400 108.620,250.760 108.800,251.200 108.800 C 251.640 108.800,252.000 108.980,252.000 109.200 C 252.000 109.420,252.320 109.600,252.712 109.600 C 253.103 109.600,253.683 109.960,254.000 110.400 C 254.317 110.840,254.857 111.200,255.200 111.200 C 255.543 111.200,256.083 111.560,256.400 112.000 C 256.717 112.440,257.257 112.800,257.600 112.800 C 257.943 112.800,258.483 113.160,258.800 113.600 C 259.117 114.040,259.567 114.400,259.800 114.400 C 260.033 114.400,260.483 114.760,260.800 115.200 C 261.117 115.640,261.657 116.000,262.000 116.000 C 262.343 116.000,262.883 116.360,263.200 116.800 C 263.517 117.240,264.086 117.600,264.465 117.600 C 264.843 117.600,265.264 117.780,265.400 118.000 C 265.726 118.528,274.674 118.528,275.000 118.000 C 275.136 117.780,275.502 117.600,275.814 117.600 C 276.126 117.600,278.643 115.395,281.409 112.700 C 284.174 110.005,288.475 105.820,290.966 103.400 C 302.831 91.874,308.000 86.698,308.000 86.342 C 308.000 86.128,308.180 86.064,308.400 86.200 C 308.620 86.336,308.800 86.137,308.800 85.757 C 308.800 85.377,308.902 85.169,309.027 85.294 C 309.349 85.616,330.000 64.953,330.000 64.309 C 330.000 64.016,330.360 63.517,330.800 63.200 C 331.240 62.883,331.600 62.303,331.600 61.912 C 331.600 61.520,331.780 61.200,332.000 61.200 C 332.243 61.200,332.400 59.400,332.400 56.600 C 332.400 53.800,332.243 52.000,332.000 52.000 C 331.780 52.000,331.600 51.526,331.600 50.947 C 331.600 50.368,331.285 49.600,330.900 49.241 C 330.515 48.882,330.008 48.243,329.773 47.821 C 329.539 47.399,329.004 46.861,328.585 46.627 C 328.167 46.392,327.369 45.749,326.812 45.199 C 326.255 44.648,325.080 43.667,324.200 43.019 C 323.320 42.371,322.309 41.517,321.953 41.121 C 321.597 40.724,321.084 40.400,320.814 40.400 C 320.543 40.400,319.817 39.860,319.200 39.200 C 318.583 38.540,317.880 38.000,317.636 38.000 C 317.392 38.000,316.628 37.460,315.937 36.800 C 315.246 36.140,314.478 35.600,314.229 35.600 C 313.980 35.600,313.517 35.240,313.200 34.800 C 312.883 34.360,312.343 34.000,312.000 34.000 C 311.657 34.000,311.117 33.640,310.800 33.200 C 310.483 32.760,309.943 32.400,309.600 32.400 C 309.257 32.400,308.717 32.040,308.400 31.600 C 308.083 31.160,307.593 30.800,307.312 30.800 C 307.030 30.800,306.800 30.620,306.800 30.400 C 306.800 30.180,306.440 30.000,306.000 30.000 C 305.560 30.000,305.200 29.850,305.200 29.668 C 305.200 29.485,304.705 29.080,304.100 28.768 C 303.495 28.456,302.910 28.111,302.800 28.001 C 302.394 27.594,300.146 26.350,298.300 25.513 C 297.255 25.038,296.400 24.504,296.400 24.325 C 296.400 24.146,296.040 24.000,295.600 24.000 C 295.160 24.000,294.800 23.820,294.800 23.600 C 294.800 23.380,294.440 23.200,294.000 23.200 C 293.560 23.200,293.200 23.020,293.200 22.800 C 293.200 22.580,292.840 22.400,292.400 22.400 C 291.960 22.400,291.600 22.220,291.600 22.000 C 291.600 21.780,291.330 21.600,291.000 21.600 C 290.670 21.600,290.400 21.420,290.400 21.200 C 290.400 20.980,290.040 20.800,289.600 20.800 C 289.160 20.800,288.800 20.620,288.800 20.400 C 288.800 20.180,288.440 20.000,288.000 20.000 C 287.560 20.000,287.200 19.820,287.200 19.600 C 287.200 19.380,286.840 19.200,286.400 19.200 C 285.960 19.200,285.600 19.020,285.600 18.800 C 285.600 18.580,285.240 18.400,284.800 18.400 C 284.360 18.400,284.000 18.220,284.000 18.000 C 284.000 17.780,283.640 17.600,283.200 17.600 C 282.760 17.600,282.400 17.420,282.400 17.200 C 282.400 16.980,281.961 16.800,281.424 16.800 C 280.887 16.800,280.336 16.620,280.200 16.400 C 280.064 16.180,279.603 16.000,279.176 16.000 C 278.749 16.000,278.400 15.820,278.400 15.600 C 278.400 15.380,278.040 15.200,277.600 15.200 C 277.160 15.200,276.800 15.020,276.800 14.800 C 276.800 14.580,276.528 14.400,276.195 14.400 C 275.862 14.400,275.277 14.241,274.895 14.047 C 274.513 13.852,273.705 13.492,273.100 13.247 C 272.495 13.001,271.505 12.599,270.900 12.353 C 270.295 12.108,269.487 11.748,269.105 11.553 C 268.723 11.359,268.048 11.200,267.605 11.200 C 267.162 11.200,266.800 11.020,266.800 10.800 C 266.800 10.580,266.260 10.400,265.600 10.400 C 264.940 10.400,264.400 10.220,264.400 10.000 C 264.400 9.780,263.860 9.600,263.200 9.600 C 262.540 9.600,262.000 9.441,262.000 9.246 C 262.000 9.051,261.010 8.768,259.800 8.617 C 258.590 8.466,257.600 8.175,257.600 7.971 C 257.600 7.767,257.071 7.600,256.424 7.600 C 255.777 7.600,255.136 7.420,255.000 7.200 C 254.864 6.980,254.133 6.800,253.376 6.800 C 252.619 6.800,252.000 6.620,252.000 6.400 C 252.000 6.180,251.280 6.000,250.400 6.000 C 249.520 6.000,248.800 5.820,248.800 5.600 C 248.800 5.380,248.080 5.200,247.200 5.200 C 246.320 5.200,245.600 5.020,245.600 4.800 C 245.600 4.580,244.880 4.400,244.000 4.400 C 243.120 4.400,242.400 4.220,242.400 4.000 C 242.400 3.780,241.590 3.600,240.600 3.600 C 239.610 3.600,238.800 3.420,238.800 3.200 C 238.800 2.980,238.001 2.800,237.024 2.800 C 236.047 2.800,235.136 2.620,235.000 2.400 C 234.864 2.180,233.683 2.000,232.376 2.000 C 231.059 2.000,230.000 1.822,230.000 1.600 C 230.000 1.372,228.811 1.200,227.233 1.200 C 225.409 1.200,224.411 1.033,224.304 0.711 C 224.143 0.228,187.957 -0.122,179.100 0.274 " stroke="none" fill="#f85412" fill-rule="evenodd"></path><path id="path2" d="M194.580 153.339 C 193.003 154.226,190.400 156.472,190.400 156.945 C 190.400 157.208,190.040 157.683,189.600 158.000 C 189.160 158.317,188.800 158.897,188.800 159.288 C 188.800 159.680,188.620 160.000,188.400 160.000 C 188.136 160.000,188.000 173.600,188.000 200.000 C 188.000 226.400,188.136 240.000,188.400 240.000 C 188.620 240.000,188.800 240.320,188.800 240.712 C 188.800 241.103,189.160 241.683,189.600 242.000 C 190.040 242.317,190.400 242.792,190.400 243.055 C 190.400 243.567,193.141 245.875,194.729 246.700 C 195.483 247.092,206.182 247.200,244.246 247.200 C 275.333 247.200,292.800 247.340,292.800 247.588 C 292.800 247.801,292.440 248.617,292.000 249.400 C 291.560 250.183,291.200 251.089,291.200 251.412 C 291.200 251.735,291.020 252.000,290.800 252.000 C 290.580 252.000,290.400 252.320,290.400 252.712 C 290.400 253.103,290.040 253.683,289.600 254.000 C 289.160 254.317,288.800 254.897,288.800 255.288 C 288.800 255.680,288.650 256.000,288.468 256.000 C 288.285 256.000,287.880 256.492,287.568 257.094 C 286.930 258.324,286.219 259.267,284.900 260.632 C 284.405 261.144,284.000 261.770,284.000 262.021 C 284.000 262.273,283.460 262.983,282.800 263.600 C 282.140 264.217,281.600 264.898,281.600 265.114 C 281.600 266.052,266.854 280.800,265.915 280.800 C 265.727 280.800,264.961 281.385,264.213 282.100 C 263.464 282.815,262.435 283.698,261.926 284.062 C 261.001 284.723,261.037 284.761,292.876 316.597 C 310.407 334.128,325.672 349.445,326.798 350.636 C 329.280 353.260,329.203 353.256,331.526 350.900 C 332.557 349.855,334.069 348.500,334.887 347.889 C 336.824 346.443,348.800 334.472,348.800 333.982 C 348.800 333.775,350.060 332.331,351.600 330.772 C 353.140 329.214,354.400 327.773,354.400 327.570 C 354.400 327.367,355.120 326.437,356.000 325.503 C 356.880 324.569,357.600 323.691,357.600 323.552 C 357.600 323.414,358.230 322.613,359.000 321.772 C 359.770 320.931,360.400 320.049,360.400 319.810 C 360.400 319.572,360.760 319.117,361.200 318.800 C 361.640 318.483,362.000 317.983,362.000 317.688 C 362.000 317.394,362.180 317.264,362.400 317.400 C 362.620 317.536,362.800 317.316,362.800 316.912 C 362.800 316.507,363.160 315.917,363.600 315.600 C 364.040 315.283,364.400 314.743,364.400 314.400 C 364.400 314.057,364.760 313.517,365.200 313.200 C 365.640 312.883,366.000 312.343,366.000 312.000 C 366.000 311.657,366.360 311.117,366.800 310.800 C 367.240 310.483,367.600 309.969,367.600 309.659 C 367.600 309.348,367.916 308.803,368.303 308.447 C 368.689 308.091,369.260 307.305,369.570 306.700 C 369.881 306.095,370.285 305.600,370.468 305.600 C 370.650 305.600,370.800 305.432,370.800 305.227 C 370.800 304.820,373.229 300.728,373.667 300.396 C 373.815 300.284,374.060 299.699,374.212 299.096 C 374.363 298.493,374.647 298.000,374.843 298.000 C 375.040 298.000,375.200 297.640,375.200 297.200 C 375.200 296.760,375.380 296.400,375.600 296.400 C 375.820 296.400,376.000 296.040,376.000 295.600 C 376.000 295.160,376.180 294.800,376.400 294.800 C 376.620 294.800,376.800 294.440,376.800 294.000 C 376.800 293.560,376.980 293.200,377.200 293.200 C 377.420 293.200,377.600 292.922,377.600 292.583 C 377.600 292.244,377.960 291.580,378.400 291.108 C 378.840 290.636,379.200 290.013,379.200 289.725 C 379.200 289.436,379.380 289.200,379.600 289.200 C 379.820 289.200,380.000 288.840,380.000 288.400 C 380.000 287.960,380.180 287.600,380.400 287.600 C 380.620 287.600,380.800 287.150,380.800 286.600 C 380.800 286.050,380.980 285.600,381.200 285.600 C 381.420 285.600,381.600 285.240,381.600 284.800 C 381.600 284.360,381.780 284.000,382.000 284.000 C 382.220 284.000,382.400 283.640,382.400 283.200 C 382.400 282.760,382.580 282.400,382.800 282.400 C 383.020 282.400,383.200 282.040,383.200 281.600 C 383.200 281.160,383.380 280.800,383.600 280.800 C 383.820 280.800,384.000 280.451,384.000 280.024 C 384.000 279.597,384.180 279.136,384.400 279.000 C 384.620 278.864,384.800 278.313,384.800 277.776 C 384.800 277.239,384.980 276.800,385.200 276.800 C 385.420 276.800,385.600 276.440,385.600 276.000 C 385.600 275.560,385.780 275.200,386.000 275.200 C 386.220 275.200,386.400 274.876,386.400 274.480 C 386.400 273.586,387.294 271.607,387.700 271.603 C 387.865 271.601,388.000 271.148,388.000 270.595 C 388.000 270.042,388.159 269.277,388.353 268.895 C 388.696 268.222,389.227 266.960,389.950 265.100 C 390.649 263.304,391.600 259.709,391.600 258.865 C 391.600 258.389,391.780 258.000,392.000 258.000 C 392.220 258.000,392.400 257.370,392.400 256.600 C 392.400 255.830,392.580 255.200,392.800 255.200 C 393.020 255.200,393.200 254.671,393.200 254.024 C 393.200 253.377,393.380 252.736,393.600 252.600 C 393.820 252.464,394.000 251.733,394.000 250.976 C 394.000 250.219,394.180 249.600,394.400 249.600 C 394.620 249.600,394.800 248.880,394.800 248.000 C 394.800 247.120,394.980 246.400,395.200 246.400 C 395.420 246.400,395.600 245.691,395.600 244.824 C 395.600 243.957,395.780 243.136,396.000 243.000 C 396.220 242.864,396.400 241.943,396.400 240.953 C 396.400 239.855,396.556 239.249,396.800 239.400 C 397.047 239.552,397.200 238.871,397.200 237.624 C 397.200 236.511,397.380 235.600,397.600 235.600 C 397.822 235.600,398.000 234.533,398.000 233.200 C 398.000 231.867,398.178 230.800,398.400 230.800 C 398.628 230.800,398.800 229.611,398.800 228.033 C 398.800 226.211,398.967 225.211,399.288 225.104 C 400.127 224.824,399.987 174.800,399.147 174.800 C 398.956 174.800,398.800 173.540,398.800 172.000 C 398.800 170.400,398.629 169.200,398.400 169.200 C 398.180 169.200,398.000 168.221,398.000 167.024 C 398.000 165.827,397.820 164.736,397.600 164.600 C 397.380 164.464,397.200 163.553,397.200 162.576 C 397.200 161.599,397.020 160.800,396.800 160.800 C 396.580 160.800,396.400 160.350,396.400 159.800 C 396.400 159.250,396.220 158.800,396.000 158.800 C 395.780 158.800,395.600 158.616,395.600 158.391 C 395.600 157.744,391.283 153.600,390.609 153.600 C 390.274 153.600,390.000 153.420,390.000 153.200 C 390.000 152.591,195.665 152.730,194.580 153.339 " stroke="none" fill="#4474dc" fill-rule="evenodd"></path><path id="path3" d="M260.093 285.600 C 259.818 286.040,259.325 286.400,258.997 286.400 C 258.668 286.400,258.400 286.580,258.400 286.800 C 258.400 287.020,258.164 287.200,257.875 287.200 C 257.587 287.200,256.964 287.560,256.492 288.000 C 256.020 288.440,255.396 288.800,255.105 288.800 C 254.814 288.800,254.317 289.160,254.000 289.600 C 253.683 290.040,253.103 290.400,252.712 290.400 C 252.320 290.400,252.000 290.580,252.000 290.800 C 252.000 291.020,251.747 291.200,251.438 291.200 C 251.129 291.200,249.302 292.010,247.378 293.000 C 245.454 293.990,243.626 294.800,243.316 294.800 C 243.006 294.800,242.864 294.980,243.000 295.200 C 243.215 295.548,242.404 295.790,241.500 295.647 C 241.335 295.621,241.200 295.780,241.200 296.000 C 241.200 296.220,240.840 296.400,240.400 296.400 C 239.960 296.400,239.600 296.580,239.600 296.800 C 239.600 297.020,239.240 297.200,238.800 297.200 C 238.360 297.200,237.997 297.425,237.994 297.700 C 237.990 298.033,237.858 298.000,237.600 297.600 C 237.342 297.200,237.210 297.167,237.206 297.500 C 237.203 297.775,236.928 298.000,236.595 298.000 C 236.262 298.000,235.677 298.159,235.295 298.353 C 233.383 299.326,230.024 300.400,228.895 300.400 C 228.429 300.400,227.936 300.580,227.800 300.800 C 227.664 301.020,226.933 301.200,226.176 301.200 C 225.419 301.200,224.800 301.380,224.800 301.600 C 224.800 301.820,224.181 302.000,223.424 302.000 C 222.667 302.000,221.936 302.180,221.800 302.400 C 221.664 302.620,220.663 302.800,219.576 302.800 C 218.489 302.800,217.600 302.980,217.600 303.200 C 217.600 303.424,216.493 303.600,215.080 303.600 C 213.694 303.600,212.388 303.772,212.178 303.982 C 211.968 304.192,209.244 304.390,206.126 304.421 C 201.519 304.468,200.413 304.590,200.228 305.072 C 200.102 305.398,200.000 326.916,200.000 352.890 L 200.000 400.114 211.300 399.845 C 217.515 399.696,223.005 399.579,223.500 399.583 C 223.995 399.587,224.400 399.428,224.400 399.230 C 224.400 399.031,225.525 398.766,226.900 398.641 C 228.275 398.516,230.570 398.306,232.000 398.173 C 233.430 398.041,234.771 397.768,234.980 397.566 C 235.189 397.365,236.134 397.200,237.080 397.200 C 238.026 397.200,238.800 397.020,238.800 396.800 C 238.800 396.580,239.610 396.400,240.600 396.400 C 241.590 396.400,242.400 396.220,242.400 396.000 C 242.400 395.780,243.300 395.600,244.400 395.600 C 245.500 395.600,246.400 395.420,246.400 395.200 C 246.400 394.980,246.929 394.800,247.576 394.800 C 248.223 394.800,248.864 394.620,249.000 394.400 C 249.136 394.180,249.766 394.000,250.400 394.000 C 251.034 394.000,251.664 393.820,251.800 393.600 C 251.936 393.380,252.757 393.200,253.624 393.200 C 254.491 393.200,255.200 393.020,255.200 392.800 C 255.200 392.580,255.740 392.400,256.400 392.400 C 257.060 392.400,257.600 392.237,257.600 392.038 C 257.600 391.838,258.516 391.549,259.636 391.395 C 260.756 391.241,262.138 390.873,262.708 390.578 C 263.277 390.283,263.891 390.132,264.071 390.244 C 264.252 390.356,264.400 390.257,264.400 390.024 C 264.400 389.791,264.925 389.600,265.567 389.600 C 266.208 389.600,266.796 389.412,266.873 389.182 C 266.949 388.952,267.414 388.734,267.906 388.697 C 268.398 388.660,268.800 388.488,268.800 388.315 C 268.800 388.142,269.126 388.000,269.525 388.000 C 269.924 388.000,271.038 387.619,272.002 387.153 C 272.966 386.688,273.945 386.276,274.177 386.239 C 274.410 386.202,275.213 385.863,275.961 385.486 C 276.710 385.109,277.565 384.800,277.861 384.800 C 278.158 384.800,278.400 384.620,278.400 384.400 C 278.400 384.180,278.634 384.000,278.920 384.000 C 279.750 384.000,281.593 383.038,281.603 382.600 C 281.608 382.380,281.787 382.470,282.000 382.800 C 282.258 383.200,282.390 383.233,282.394 382.900 C 282.397 382.625,282.760 382.400,283.200 382.400 C 283.640 382.400,284.001 382.265,284.003 382.100 C 284.007 381.741,285.944 380.800,286.680 380.800 C 286.966 380.800,287.200 380.620,287.200 380.400 C 287.200 380.180,287.571 380.000,288.024 380.000 C 288.477 380.000,288.736 379.820,288.600 379.600 C 288.385 379.252,289.196 379.010,290.100 379.153 C 290.265 379.179,290.400 379.020,290.400 378.800 C 290.400 378.580,290.670 378.400,291.000 378.400 C 291.330 378.400,291.600 378.220,291.600 378.000 C 291.600 377.780,291.960 377.600,292.400 377.600 C 292.840 377.600,293.201 377.465,293.203 377.300 C 293.207 376.941,295.144 376.000,295.880 376.000 C 296.166 376.000,296.400 375.823,296.400 375.608 C 296.400 375.392,296.850 375.102,297.400 374.964 C 297.950 374.826,298.400 374.553,298.400 374.357 C 298.400 374.160,298.760 374.000,299.200 374.000 C 299.640 374.000,300.000 373.856,300.000 373.680 C 300.000 373.505,300.633 373.132,301.406 372.852 C 302.180 372.573,302.709 372.176,302.583 371.972 C 302.456 371.767,302.729 371.600,303.189 371.600 C 303.649 371.600,304.128 371.331,304.254 371.002 C 304.381 370.674,304.645 370.504,304.842 370.626 C 305.039 370.748,305.200 370.678,305.200 370.472 C 305.200 370.266,305.785 369.860,306.500 369.571 C 307.215 369.281,308.091 368.719,308.447 368.322 C 308.803 367.925,309.398 367.600,309.771 367.600 C 310.143 367.600,310.336 367.420,310.200 367.200 C 310.064 366.980,310.233 366.800,310.576 366.800 C 310.919 366.800,311.200 366.620,311.200 366.400 C 311.200 366.180,311.520 366.000,311.912 366.000 C 312.303 366.000,312.883 365.640,313.200 365.200 C 313.517 364.760,313.962 364.399,314.188 364.398 C 314.415 364.397,315.170 363.862,315.866 363.209 C 316.563 362.557,317.355 361.972,317.628 361.911 C 317.900 361.850,318.609 361.305,319.205 360.700 C 319.800 360.095,320.539 359.600,320.848 359.600 C 321.157 359.600,321.736 359.167,322.133 358.637 C 322.531 358.107,323.382 357.456,324.023 357.190 C 324.665 356.925,325.091 356.548,324.971 356.354 C 324.851 356.159,324.952 356.000,325.195 356.000 C 325.438 356.000,326.070 355.595,326.599 355.100 C 328.262 353.545,328.708 353.241,328.957 353.491 C 329.091 353.624,329.200 353.596,329.200 353.429 C 329.200 352.886,261.365 284.800,260.824 284.800 C 260.697 284.800,260.368 285.160,260.093 285.600 " stroke="none" fill="#04a46c" fill-rule="evenodd"></path><path id="path4" d="M25.900 100.984 C 25.295 102.188,24.800 103.450,24.800 103.787 C 24.800 104.124,24.620 104.400,24.400 104.400 C 24.180 104.400,24.000 104.678,24.000 105.017 C 24.000 105.356,23.640 106.020,23.200 106.492 C 22.760 106.964,22.400 107.587,22.400 107.875 C 22.400 108.164,22.220 108.400,22.000 108.400 C 21.780 108.400,21.600 108.749,21.600 109.176 C 21.600 109.603,21.457 110.041,21.282 110.149 C 21.107 110.258,20.373 111.573,19.651 113.073 C 18.929 114.573,18.173 116.113,17.969 116.495 C 17.766 116.877,17.600 117.462,17.600 117.795 C 17.600 118.128,17.420 118.400,17.200 118.400 C 16.980 118.400,16.800 118.760,16.800 119.200 C 16.800 119.640,16.620 120.000,16.400 120.000 C 16.180 120.000,16.000 120.360,16.000 120.800 C 16.000 121.240,15.820 121.600,15.600 121.600 C 15.380 121.600,15.200 122.039,15.200 122.576 C 15.200 123.113,15.020 123.664,14.800 123.800 C 14.580 123.936,14.400 124.397,14.400 124.824 C 14.400 125.251,14.220 125.600,14.000 125.600 C 13.780 125.600,13.600 125.960,13.600 126.400 C 13.600 126.840,13.420 127.200,13.200 127.200 C 12.980 127.200,12.800 127.639,12.800 128.176 C 12.800 128.713,12.620 129.264,12.400 129.400 C 12.180 129.536,12.000 130.087,12.000 130.624 C 12.000 131.161,11.820 131.600,11.600 131.600 C 11.380 131.600,11.200 132.050,11.200 132.600 C 11.200 133.150,11.020 133.600,10.800 133.600 C 10.580 133.600,10.400 133.962,10.400 134.405 C 10.400 134.848,10.237 135.523,10.037 135.905 C 9.440 137.047,8.400 140.822,8.400 141.846 C 8.400 142.371,8.220 142.800,8.000 142.800 C 7.780 142.800,7.600 143.329,7.600 143.976 C 7.600 144.623,7.420 145.264,7.200 145.400 C 6.980 145.536,6.800 146.177,6.800 146.824 C 6.800 147.471,6.620 148.000,6.400 148.000 C 6.180 148.000,6.000 148.720,6.000 149.600 C 6.000 150.480,5.820 151.200,5.600 151.200 C 5.380 151.200,5.200 151.920,5.200 152.800 C 5.200 153.680,5.020 154.400,4.800 154.400 C 4.580 154.400,4.400 155.120,4.400 156.000 C 4.400 156.880,4.220 157.600,4.000 157.600 C 3.780 157.600,3.600 158.410,3.600 159.400 C 3.600 160.390,3.420 161.200,3.200 161.200 C 2.980 161.200,2.800 162.089,2.800 163.176 C 2.800 164.263,2.620 165.264,2.400 165.400 C 2.180 165.536,2.000 166.616,2.000 167.800 C 2.000 168.984,1.820 170.064,1.600 170.200 C 1.380 170.336,1.200 171.571,1.200 172.944 C 1.200 174.407,0.993 175.647,0.700 175.940 C -0.029 176.669,-0.029 223.331,0.700 224.060 C 0.993 224.353,1.200 225.593,1.200 227.056 C 1.200 228.429,1.380 229.664,1.600 229.800 C 1.820 229.936,2.000 231.117,2.000 232.424 C 2.000 233.741,2.178 234.800,2.400 234.800 C 2.620 234.800,2.800 235.700,2.800 236.800 C 2.800 237.900,2.980 238.800,3.200 238.800 C 3.420 238.800,3.600 239.610,3.600 240.600 C 3.600 241.590,3.780 242.400,4.000 242.400 C 4.220 242.400,4.400 243.120,4.400 244.000 C 4.400 244.880,4.580 245.600,4.800 245.600 C 5.020 245.600,5.200 246.320,5.200 247.200 C 5.200 248.080,5.380 248.800,5.600 248.800 C 5.820 248.800,6.000 249.520,6.000 250.400 C 6.000 251.280,6.180 252.000,6.400 252.000 C 6.620 252.000,6.800 252.529,6.800 253.176 C 6.800 253.823,6.980 254.464,7.200 254.600 C 7.420 254.736,7.600 255.377,7.600 256.024 C 7.600 256.671,7.780 257.200,8.000 257.200 C 8.220 257.200,8.400 257.646,8.400 258.192 C 8.400 259.221,10.124 264.878,10.809 266.095 C 11.024 266.477,11.200 267.152,11.200 267.595 C 11.200 268.038,11.380 268.400,11.600 268.400 C 11.820 268.400,12.000 268.762,12.000 269.205 C 12.000 269.648,12.180 270.368,12.400 270.805 C 12.620 271.242,12.980 271.958,13.200 272.395 C 13.420 272.832,13.600 273.462,13.600 273.795 C 13.600 274.128,13.780 274.400,14.000 274.400 C 14.220 274.400,14.400 274.749,14.400 275.176 C 14.400 275.603,14.580 276.064,14.800 276.200 C 15.020 276.336,15.200 276.887,15.200 277.424 C 15.200 277.961,15.380 278.400,15.600 278.400 C 15.820 278.400,16.000 278.760,16.000 279.200 C 16.000 279.640,16.180 280.000,16.400 280.000 C 16.620 280.000,16.800 280.360,16.800 280.800 C 16.800 281.240,16.980 281.600,17.200 281.600 C 17.420 281.600,17.600 281.872,17.600 282.205 C 17.600 282.538,17.757 283.123,17.950 283.505 C 18.142 283.887,18.655 284.920,19.088 285.800 C 19.522 286.680,20.265 288.080,20.738 288.912 C 21.212 289.744,21.600 290.689,21.600 291.012 C 21.600 291.335,21.780 291.600,22.000 291.600 C 22.220 291.600,22.400 291.836,22.400 292.125 C 22.400 292.413,22.760 293.036,23.200 293.508 C 23.640 293.980,24.000 294.644,24.000 294.983 C 24.000 295.322,24.180 295.600,24.400 295.600 C 24.620 295.600,24.800 295.876,24.800 296.213 C 24.800 297.757,26.989 301.208,27.903 301.103 C 28.495 301.035,40.957 288.849,64.203 265.605 C 99.097 230.713,100.625 229.081,99.200 228.200 C 98.980 228.064,98.800 227.423,98.800 226.776 C 98.800 226.129,98.620 225.600,98.400 225.600 C 98.180 225.600,98.000 224.700,98.000 223.600 C 98.000 222.500,97.820 221.600,97.600 221.600 C 97.380 221.600,97.200 220.700,97.200 219.600 C 97.200 218.500,97.020 217.600,96.800 217.600 C 96.575 217.600,96.400 216.475,96.400 215.024 C 96.400 213.607,96.220 212.336,96.000 212.200 C 95.455 211.863,95.455 188.137,96.000 187.800 C 96.220 187.664,96.400 186.393,96.400 184.976 C 96.400 183.525,96.575 182.400,96.800 182.400 C 97.020 182.400,97.200 181.500,97.200 180.400 C 97.200 179.300,97.346 178.400,97.525 178.400 C 97.704 178.400,97.894 177.545,97.947 176.500 C 98.000 175.455,98.213 174.540,98.421 174.467 C 98.630 174.393,98.800 173.819,98.800 173.190 C 98.800 172.562,98.980 171.936,99.200 171.800 C 100.625 170.919,99.097 169.287,64.203 134.395 C 40.957 111.151,28.495 98.965,27.903 98.897 C 27.170 98.813,26.793 99.206,25.900 100.984 " stroke="none" fill="#fcdc2c" fill-rule="evenodd"></path></g></svg>