<svg width="33" height="33" viewBox="0 0 33 33" fill="none" xmlns="http://www.w3.org/2000/svg">
<path d="M29.9826 13.8071H28.875V13.75H16.5V19.25H24.2708C23.1371 22.4517 20.0908 24.75 16.5 24.75C11.9439 24.75 8.25 21.0561 8.25 16.5C8.25 11.9439 11.9439 8.25 16.5 8.25C18.6031 8.25 20.5164 9.04337 21.9732 10.3393L25.8624 6.45012C23.4066 4.16144 20.1217 2.75 16.5 2.75C8.90656 2.75 2.75 8.90656 2.75 16.5C2.75 24.0934 8.90656 30.25 16.5 30.25C24.0934 30.25 30.25 24.0934 30.25 16.5C30.25 15.5781 30.1551 14.6781 29.9826 13.8071Z" fill="#FFC107"/>
<path d="M4.33545 10.1001L8.85301 13.4131C10.0754 10.3868 13.0358 8.25 16.5001 8.25C18.6031 8.25 20.5164 9.04337 21.9733 10.3393L25.8624 6.45012C23.4067 4.16144 20.1218 2.75 16.5001 2.75C11.2187 2.75 6.63857 5.73169 4.33545 10.1001Z" fill="#FF3D00"/>
<path d="M16.5 30.25C20.0516 30.25 23.2787 28.8908 25.7187 26.6805L21.463 23.0794C20.0362 24.1645 18.2926 24.7514 16.5 24.75C12.9236 24.75 9.88691 22.4695 8.74291 19.2871L4.25903 22.7418C6.53466 27.1947 11.156 30.25 16.5 30.25Z" fill="#4CAF50"/>
<path d="M29.9826 13.8071H28.875V13.75H16.5V19.25H24.2708C23.7285 20.7738 22.7517 22.1053 21.461 23.0801L21.4631 23.0787L25.7187 26.6798C25.4176 26.9534 30.25 23.375 30.25 16.5C30.25 15.5781 30.1551 14.6781 29.9826 13.8071Z" fill="#1976D2"/>
</svg>
