<svg width="25" height="27" viewBox="0 0 25 27" fill="none" xmlns="http://www.w3.org/2000/svg">
<path d="M9.72284 3.27403L10.4394 4.29828L9.72284 3.27403ZM11.7671 2.08964L12.0685 3.30276L11.7671 2.08964ZM15.2772 3.27403L14.5606 4.29828L15.2772 3.27403ZM13.2329 2.08964L12.9315 3.30276L13.2329 2.08964ZM3.63803 24.6775L3.07678 25.7944L3.63803 24.6775ZM2.32698 23.3846L3.43752 22.8108L2.32698 23.3846ZM22.673 23.3846L21.5625 22.8108L22.673 23.3846ZM21.362 24.6775L21.9232 25.7944L21.362 24.6775ZM22.878 9.37029L24.0758 9.01293V9.01293L22.878 9.37029ZM20.9772 7.26158L21.6937 6.23734L20.9772 7.26158ZM22.3558 8.37353L23.3321 7.59296L22.3558 8.37353ZM2.12198 9.37029L0.924153 9.01293L2.12198 9.37029ZM4.02284 7.26158L3.30631 6.23734L4.02284 7.26158ZM2.6442 8.37353L1.66788 7.59296L2.6442 8.37353ZM9.5 18.5725C8.80964 18.5725 8.25 19.1321 8.25 19.8225C8.25 20.5128 8.80964 21.0725 9.5 21.0725V18.5725ZM15.5 21.0725C16.1904 21.0725 16.75 20.5128 16.75 19.8225C16.75 19.1321 16.1904 18.5725 15.5 18.5725V21.0725ZM21.75 11.1226V20.2662H24.25V11.1226H21.75ZM18.2 23.75H6.8V26.25H18.2V23.75ZM3.25 20.2662V11.1226H0.75V20.2662H3.25ZM4.73937 8.28583L10.4394 4.29828L9.00631 2.24979L3.30631 6.23734L4.73937 8.28583ZM14.5606 4.29828L20.2606 8.28583L21.6937 6.23734L15.9937 2.24979L14.5606 4.29828ZM10.4394 4.29828C11.5237 3.53971 11.8032 3.36868 12.0685 3.30276L11.4657 0.876523C10.6416 1.08127 9.92141 1.60961 9.00631 2.24979L10.4394 4.29828ZM15.9937 2.24979C15.0786 1.60961 14.3584 1.08127 13.5343 0.876523L12.9315 3.30276C13.1968 3.36868 13.4763 3.53971 14.5606 4.29828L15.9937 2.24979ZM12.0685 3.30276C12.3517 3.23241 12.6483 3.23241 12.9315 3.30276L13.5343 0.876523C12.8553 0.707826 12.1447 0.707826 11.4657 0.876523L12.0685 3.30276ZM6.8 23.75C5.93958 23.75 5.3684 23.7491 4.93 23.7137C4.50569 23.6795 4.3161 23.6193 4.19927 23.5606L3.07678 25.7944C3.60169 26.0582 4.15301 26.1592 4.72921 26.2057C5.29132 26.2509 5.98026 26.25 6.8 26.25V23.75ZM0.75 20.2662C0.75 21.0738 0.749001 21.7557 0.79514 22.3126C0.842532 22.8847 0.945949 23.4348 1.21644 23.9583L3.43752 22.8108C3.38103 22.7015 3.32096 22.5209 3.2866 22.1062C3.251 21.6765 3.25 21.1156 3.25 20.2662H0.75ZM4.19927 23.5606C3.86856 23.3944 3.60291 23.1309 3.43752 22.8108L1.21644 23.9583C1.62629 24.7516 2.27853 25.3933 3.07678 25.7944L4.19927 23.5606ZM21.75 20.2662C21.75 21.1156 21.749 21.6765 21.7134 22.1062C21.679 22.5209 21.619 22.7015 21.5625 22.8108L23.7836 23.9583C24.0541 23.4348 24.1575 22.8847 24.2049 22.3126C24.251 21.7557 24.25 21.0738 24.25 20.2662H21.75ZM18.2 26.25C19.0197 26.25 19.7087 26.2509 20.2708 26.2057C20.847 26.1592 21.3983 26.0582 21.9232 25.7944L20.8007 23.5606C20.6839 23.6193 20.4943 23.6795 20.07 23.7137C19.6316 23.7491 19.0604 23.75 18.2 23.75V26.25ZM21.5625 22.8108C21.3971 23.1309 21.1314 23.3944 20.8007 23.5606L21.9232 25.7944C22.7215 25.3933 23.3737 24.7516 23.7836 23.9583L21.5625 22.8108ZM24.25 11.1226C24.25 10.3029 24.2623 9.63784 24.0758 9.01293L21.6802 9.72765C21.7377 9.9205 21.75 10.151 21.75 11.1226H24.25ZM20.2606 8.28583C21.0631 8.84723 21.2508 8.99314 21.3795 9.1541L23.3321 7.59296C22.9256 7.08455 22.3726 6.71229 21.6937 6.23734L20.2606 8.28583ZM24.0758 9.01293C23.9217 8.4962 23.669 8.01429 23.3321 7.59296L21.3795 9.1541C21.5165 9.3255 21.6183 9.52026 21.6802 9.72765L24.0758 9.01293ZM3.25 11.1226C3.25 10.1511 3.26228 9.9205 3.31981 9.72765L0.924153 9.01293C0.737722 9.63784 0.75 10.3029 0.75 11.1226H3.25ZM3.30631 6.23734C2.62739 6.71228 2.07435 7.08455 1.66788 7.59296L3.62053 9.1541C3.74922 8.99314 3.93688 8.84723 4.73937 8.28583L3.30631 6.23734ZM3.31981 9.72765C3.38168 9.52026 3.4835 9.3255 3.62053 9.1541L1.66788 7.59296C1.33102 8.01429 1.07831 8.4962 0.924153 9.01293L3.31981 9.72765ZM9.5 21.0725H15.5V18.5725H9.5V21.0725Z" fill="#ADADAD"/>
</svg>
