<svg width="20" height="20" viewBox="0 0 20 20" fill="none" xmlns="http://www.w3.org/2000/svg">
<path d="M8.59091 19.0114V0.261363H11.7727V19.0114H8.59091ZM0.806818 11.2273V8.04545H19.5568V11.2273H0.806818Z" fill="#ADADAD"/>
<path d="M8.59091 19.0114H8.09091V19.5114H8.59091V19.0114ZM8.59091 0.261363V-0.238637H8.09091V0.261363H8.59091ZM11.7727 0.261363H12.2727V-0.238637H11.7727V0.261363ZM11.7727 19.0114V19.5114H12.2727V19.0114H11.7727ZM0.806818 11.2273H0.306818V11.7273H0.806818V11.2273ZM0.806818 8.04545V7.54545H0.306818V8.04545H0.806818ZM19.5568 8.04545H20.0568V7.54545H19.5568V8.04545ZM19.5568 11.2273V11.7273H20.0568V11.2273H19.5568ZM9.09091 19.0114V0.261363H8.09091V19.0114H9.09091ZM8.59091 0.761363H11.7727V-0.238637H8.59091V0.761363ZM11.2727 0.261363V19.0114H12.2727V0.261363H11.2727ZM11.7727 18.5114H8.59091V19.5114H11.7727V18.5114ZM1.30682 11.2273V8.04545H0.306818V11.2273H1.30682ZM0.806818 8.54545H19.5568V7.54545H0.806818V8.54545ZM19.0568 8.04545V11.2273H20.0568V8.04545H19.0568ZM19.5568 10.7273H0.806818V11.7273H19.5568V10.7273Z" fill="#ADADAD"/>
</svg>
