<svg width="40" height="40" viewBox="0 0 40 40" fill="none" xmlns="http://www.w3.org/2000/svg">
<path fill-rule="evenodd" clip-rule="evenodd" d="M30.3054 23.2978H31.1299C34.5115 23.2978 37.5127 21.6691 39.3918 19.1533L40.2397 34.0771C40.4334 37.4866 37.8266 40.4075 34.4171 40.6012C34.3003 40.6079 34.1833 40.6112 34.0663 40.6112H5.93334C2.51838 40.6112 -0.25 37.8428 -0.25 34.4278C-0.25 34.3109 -0.24668 34.1939 -0.240044 34.0771L0.6079 19.1533C2.48701 21.6691 5.48821 23.2978 8.86982 23.2978H9.69427V26.1834H13.8165V23.2978H26.1832V26.1834H30.3054V23.2978ZM9.69427 28.2445V32.3667H13.8165V28.2445H9.69427ZM26.1832 28.2445H30.3054V32.3667H26.1832V28.2445ZM26.1832 19.1756H13.8165V13.8167H9.69427V19.1756H8.86982C5.45486 19.1756 2.68648 16.4072 2.68648 12.9923V5.57226C2.68648 2.15729 5.45486 -0.611084 8.86982 -0.611084H31.1299C34.5448 -0.611084 37.3132 2.15729 37.3132 5.57226V12.9923C37.3132 16.4072 34.5448 19.1756 31.1299 19.1756H30.3054V13.8167H26.1832V19.1756Z" fill="#7E5050"/>
</svg>