<svg width="29" height="27" viewBox="0 0 29 27" fill="none" xmlns="http://www.w3.org/2000/svg">
<path fill-rule="evenodd" clip-rule="evenodd" d="M26.8041 8.52633C27.3059 8.2275 27.9424 8.25768 28.4138 8.60392C28.8835 8.95162 29.098 9.54355 28.9575 10.1068L26.0574 21.6008C25.8952 22.2415 25.3151 22.6898 24.6496 22.6898H4.35036C3.68484 22.6898 3.10485 22.24 2.94247 21.6008L0.0425677 10.1068C-0.0980624 9.54355 0.116515 8.95162 0.586297 8.60392C1.05899 8.2591 1.69407 8.22893 2.19719 8.52633L8.26232 12.1326L13.2951 4.65144C13.3295 4.60034 13.3774 4.56657 13.4255 4.53271C13.4545 4.5123 13.4835 4.49185 13.5097 4.46754L12.1134 3.08252C11.8321 2.8038 11.8321 2.34547 12.1134 2.06675L13.9881 0.209041C14.2694 -0.0696802 14.732 -0.0696802 15.0133 0.209041L16.888 2.06675C17.1693 2.34547 17.1693 2.8038 16.888 3.08252L15.4917 4.46754C15.5179 4.49235 15.5475 4.51315 15.5771 4.53399C15.6247 4.56743 15.6724 4.60099 15.7063 4.65144L20.7391 12.1326L26.8041 8.52633ZM2.9006 24.1264H26.0996V27H2.9006V24.1264Z" fill="#FFE875"/>
</svg>
