<svg width="14" height="13" viewBox="0 0 14 13" fill="none" xmlns="http://www.w3.org/2000/svg">
<path d="M12.5714 7.42857H7.92857V12.0714C7.92857 12.3177 7.83074 12.5539 7.6566 12.728C7.48246 12.9022 7.24627 13 7 13C6.75373 13 6.51754 12.9022 6.3434 12.728C6.16926 12.5539 6.07143 12.3177 6.07143 12.0714V7.42857H1.42857C1.1823 7.42857 0.946113 7.33074 0.771972 7.1566C0.597832 6.98246 0.5 6.74627 0.5 6.5C0.5 6.25373 0.597832 6.01754 0.771972 5.8434C0.946113 5.66926 1.1823 5.57143 1.42857 5.57143H6.07143V0.928571C6.07143 0.682299 6.16926 0.446113 6.3434 0.271972C6.51754 0.0978311 6.75373 0 7 0C7.24627 0 7.48246 0.0978311 7.6566 0.271972C7.83074 0.446113 7.92857 0.682299 7.92857 0.928571V5.57143H12.5714C12.8177 5.57143 13.0539 5.66926 13.228 5.8434C13.4022 6.01754 13.5 6.25373 13.5 6.5C13.5 6.74627 13.4022 6.98246 13.228 7.1566C13.0539 7.33074 12.8177 7.42857 12.5714 7.42857Z" fill="black"/>
</svg>
