<svg width="48" height="48" viewBox="0 0 48 48" fill="none" xmlns="http://www.w3.org/2000/svg">
<circle cx="24" cy="24" r="22.75" fill="white" stroke="#D9D9D9" stroke-width="2.5"/>
<path d="M19.3636 15.4706V11.7059C19.3636 11.5187 19.4355 11.3391 19.5633 11.2067C19.6912 11.0744 19.8646 11 20.0455 11C20.2263 11 20.3997 11.0744 20.5276 11.2067C20.6554 11.3391 20.7273 11.5187 20.7273 11.7059V15.4706C20.7273 15.6578 20.6554 15.8373 20.5276 15.9697C20.3997 16.1021 20.2263 16.1765 20.0455 16.1765C19.8646 16.1765 19.6912 16.1021 19.5633 15.9697C19.4355 15.8373 19.3636 15.6578 19.3636 15.4706ZM23.6818 16.1765C23.8626 16.1765 24.0361 16.1021 24.1639 15.9697C24.2918 15.8373 24.3636 15.6578 24.3636 15.4706V11.7059C24.3636 11.5187 24.2918 11.3391 24.1639 11.2067C24.0361 11.0744 23.8626 11 23.6818 11C23.501 11 23.3276 11.0744 23.1997 11.2067C23.0718 11.3391 23 11.5187 23 11.7059V15.4706C23 15.6578 23.0718 15.8373 23.1997 15.9697C23.3276 16.1021 23.501 16.1765 23.6818 16.1765ZM27.3182 16.1765C27.499 16.1765 27.6724 16.1021 27.8003 15.9697C27.9282 15.8373 28 15.6578 28 15.4706V11.7059C28 11.5187 27.9282 11.3391 27.8003 11.2067C27.6724 11.0744 27.499 11 27.3182 11C27.1374 11 26.9639 11.0744 26.8361 11.2067C26.7082 11.3391 26.6364 11.5187 26.6364 11.7059V15.4706C26.6364 15.6578 26.7082 15.8373 26.8361 15.9697C26.9639 16.1021 27.1374 16.1765 27.3182 16.1765ZM38 23V23.9412C38.0004 25.1056 37.5621 26.2242 36.7781 27.0591C35.9942 27.894 34.9265 28.3793 33.8023 28.4118C33.1332 30.456 31.9041 32.2546 30.2648 33.5882H33.6818C33.8626 33.5882 34.0361 33.6626 34.1639 33.795C34.2918 33.9274 34.3636 34.1069 34.3636 34.2941C34.3636 34.4813 34.2918 34.6609 34.1639 34.7933C34.0361 34.9256 33.8626 35 33.6818 35H13.6818C13.501 35 13.3276 34.9256 13.1997 34.7933C13.0718 34.6609 13 34.4813 13 34.2941C13 34.1069 13.0718 33.9274 13.1997 33.795C13.3276 33.6626 13.501 33.5882 13.6818 33.5882H17.0989C15.8246 32.5521 14.7937 31.2305 14.0838 29.7226C13.3739 28.2147 13.0033 26.5598 13 24.8824V19.2353C13 19.0481 13.0718 18.8685 13.1997 18.7362C13.3276 18.6038 13.501 18.5294 13.6818 18.5294H33.6818C34.8271 18.5294 35.9254 19.0004 36.7352 19.8388C37.545 20.6772 38 21.8143 38 23ZM33 24.8824V19.9412H14.3636V24.8824C14.3672 26.703 14.8668 28.4857 15.8049 30.0256C16.743 31.5656 18.0816 32.8004 19.667 33.5882H27.6966C29.282 32.8004 30.6206 31.5656 31.5587 30.0256C32.4968 28.4857 32.9964 26.703 33 24.8824ZM36.6364 23C36.6362 22.3117 36.4117 21.6435 35.9993 21.1036C35.5868 20.5637 35.0106 20.1836 34.3636 20.0247V24.8824C34.3634 25.5789 34.2991 26.2738 34.1716 26.9576C34.8606 26.8377 35.4863 26.4689 35.9375 25.9167C36.3887 25.3644 36.6364 24.6645 36.6364 23.9412V23Z" fill="black" stroke="black" stroke-width="0.5"/>
</svg>
