<svg width="17" height="17" viewBox="0 0 17 17" fill="none" xmlns="http://www.w3.org/2000/svg">
<path d="M12.2279 1.54196C12.4603 1.30968 12.7755 1.1792 13.1041 1.1792C13.4327 1.1792 13.7478 1.30968 13.9803 1.54196L15.812 3.37371C16.0443 3.60615 16.1748 3.92131 16.1748 4.24991C16.1748 4.57852 16.0443 4.89368 15.812 5.12612L13.8336 7.1045L13.8251 7.11371L6.15532 14.4343C6.01515 14.5682 5.84558 14.6674 5.66019 14.724L1.74807 15.914C1.65609 15.9419 1.55825 15.9443 1.46504 15.9208C1.37184 15.8973 1.28676 15.849 1.21894 15.7809C1.15084 15.713 1.10247 15.628 1.07901 15.5348C1.05555 15.4416 1.05789 15.3437 1.08577 15.2517L2.27082 11.3559C2.33297 11.152 2.44666 10.9676 2.6009 10.8204L10.2537 3.51537L12.2279 1.54196ZM3.33473 11.589C3.31283 11.6101 3.29652 11.6364 3.28727 11.6655L2.39194 14.6079L5.35065 13.7076C5.37718 13.6993 5.40143 13.685 5.42148 13.6658L12.6982 6.71987L10.6157 4.63808L3.33473 11.589ZM13.4582 5.97825L15.0612 4.376C15.0777 4.35955 15.0908 4.34001 15.0997 4.31849C15.1086 4.29698 15.1132 4.27391 15.1132 4.25062C15.1132 4.22733 15.1086 4.20427 15.0997 4.18275C15.0908 4.16124 15.0777 4.1417 15.0612 4.12525L13.2294 2.2935C13.213 2.27701 13.1935 2.26392 13.1719 2.25499C13.1504 2.24607 13.1274 2.24147 13.1041 2.24147C13.0808 2.24147 13.0577 2.24607 13.0362 2.25499C13.0147 2.26392 12.9951 2.27701 12.9787 2.2935L11.3764 3.89575L13.4582 5.97825Z" fill="black"/>
</svg>
